<svg id="Layer_1" data-name="Layer 1" xmlns="http://www.w3.org/2000/svg" width="64" height="64" viewBox="0 0 64 64"><defs><style>.cls-1{fill:#666;}</style></defs><title>linkedin</title><rect class="cls-1" x="12.5" y="24.9" width="9" height="27"/><path class="cls-1" d="M16.9,20.3c3.3,0,5.3-2.2,5.3-4.9A4.86,4.86,0,0,0,17,10.5c-3.2,0-5.3,2.1-5.3,4.9s2,4.9,5.2,4.9h0Z"/><path class="cls-1" d="M44.5,24.9c-5,0-6.8,2.7-8,4.6V25h-9V52h9.1s-0.1-16.2-.1-16.5a4.5,4.5,0,1,1,9,0V52h9V37.3C54.5,28.7,50.7,24.9,44.5,24.9Z"/></svg>