<?xml version="1.0" encoding="UTF-8"?>
<svg width="101px" height="91px" viewBox="0 0 101 91" version="1.1" xmlns="http://www.w3.org/2000/svg" xmlns:xlink="http://www.w3.org/1999/xlink">
    <!-- Generator: Sketch 52.1 (67048) - http://www.bohemiancoding.com/sketch -->
    <title>date</title>
    <desc>Created with Sketch.</desc>
    <g id="Page-1" stroke="none" stroke-width="1" fill="none" fill-rule="evenodd">
        <g id="date">
            <rect id="Rectangle" fill="#FFFFFF" fill-rule="nonzero" x="1" y="3" width="99" height="87"></rect>
            <path d="M91.674,2.773 C70.488,3.153 49.255,2.207 28.677,2.186 C19.5,2.187 10.374,2.187 1.5,2.188 L0.14,2.188 L0.143,3.545 C0.205,33.024 0.265,61.704 0.323,89.545 L0.325,90.725 L1.5,90.723 C28.359,90.68 54.308,90.692 79.618,90.871 C83.961,90.902 91.105,90.971 95.558,90.93 C104.809,90.843 95.457,89.328 91.032,89.115 C63.243,87.764 32.87,88.014 8.301,88.456 C6.031,88.493 3.762,88.531 1.5,88.568 L2.477,89.546 C2.04,60.764 2.094,32.071 2.259,3.546 L1.5,4.304 C34.409,4.494 67.111,4.832 99.5,4.737 L98.309,3.546 C98.383,28.976 98.724,54.209 99.612,79.211 C99.72,82.244 100.155,95.075 100.665,86.818 C101.186,78.365 100.822,61.636 100.769,57.974 C100.523,40.443 100.62,22.179 100.391,3.546 L100.379,2.642 L99.5,2.654 C96.939,2.693 94.309,2.733 91.674,2.773 Z M99.258,3.16 C99.159,3.112 99.27,3.052 99.5,2.991 L99.882,2.89 L100.055,3.545 C100.236,4.23 100.414,5.972 100.235,6.345 C100.066,6.697 99.728,4.394 99.83,3.545 L99.864,3.257 L99.5,3.216 C99.393,3.204 99.312,3.186 99.258,3.16 Z" id="Shape" fill="#83888C"></path>
            <path d="M74.759,12.773 C69.06,13.153 63.347,12.207 57.812,12.186 C39.847,12.117 22.609,12.648 6.349,12.218 C5.181,12.187 3.259,12.119 2.06,12.16 C-0.428,12.246 2.087,13.761 3.278,13.975 C10.754,15.326 18.925,15.075 25.534,14.634 C49.825,13.014 73.896,16.51 97.22,13.433 C98.035,13.325 101.488,12.89 99.266,12.38 C96.993,11.859 92.492,12.223 91.507,12.276 C86.124,12.558 80.484,12.391 74.759,12.773 Z M76.799,13.16 C76.694,12.971 77.484,12.571 77.617,12.811 C77.724,13 76.934,13.401 76.799,13.16 Z" id="Shape" fill="#83888C"></path>
            <path d="M79.729,1.83 C80.109,2.233 79.163,2.637 79.142,3.028 C79.073,4.299 79.604,5.517 79.174,6.667 C79.143,6.75 79.074,6.886 79.115,6.97 C79.202,7.146 80.717,6.969 80.93,6.884 C82.281,6.356 82.031,5.778 81.589,5.31 C79.97,3.593 83.466,1.891 80.388,0.242 C80.28,0.184 79.845,-0.06 79.335,0.097 C78.814,0.258 79.178,0.576 79.231,0.646 C79.513,1.026 79.347,1.425 79.729,1.83 Z" id="Shape" fill="#83888C"></path>
            <path d="M19.728,1.83 C20.108,2.233 19.162,2.637 19.142,3.028 C19.072,4.299 19.604,5.517 19.174,6.667 C19.142,6.75 19.075,6.886 19.116,6.97 C19.202,7.146 20.717,6.969 20.931,6.884 C22.282,6.356 22.031,5.778 21.59,5.31 C19.971,3.593 23.466,1.891 20.389,0.242 C20.281,0.184 19.846,-0.06 19.336,0.097 C18.815,0.258 19.179,0.576 19.232,0.646 C19.513,1.026 19.347,1.425 19.728,1.83 Z" id="Shape" fill="#83888C"></path>
            <g id="Group" transform="translate(35.000000, 20.000000)" fill="#83888C">
                <rect id="Rectangle" x="1" y="1.167" width="6" height="6"></rect>
                <path d="M7.381,0.773 C5.999,1.153 4.614,0.207 3.273,0.186 C2.674,0.177 2.078,0.179 1.501,0.187 L0.123,0.209 L0.144,1.544 C0.176,3.606 0.295,5.608 0.333,7.544 L0.356,8.734 L1.501,8.712 C3.121,8.681 4.681,8.704 6.204,8.87 C6.487,8.901 6.954,8.969 7.244,8.928 C7.847,8.842 7.237,7.327 6.949,7.113 C5.136,5.762 3.156,6.013 1.553,6.454 L1.5,6.469 L2.576,7.545 C2.034,5.537 2.083,3.535 2.259,1.545 L1.5,2.304 C3.514,2.482 5.516,2.791 7.5,2.75 L6.296,1.545 C6.333,3.336 6.654,5.112 7.611,6.871 C7.719,7.069 8.154,7.906 8.664,7.367 C9.185,6.816 8.821,5.725 8.768,5.486 C8.495,4.219 8.644,2.893 8.303,1.545 L8.062,0.591 L7.499,0.741 L7.381,0.773 Z M7.885,1.92 C8.075,1.894 8.474,2.086 8.234,2.118 C8.045,2.145 7.645,1.953 7.885,1.92 Z" id="Shape"></path>
            </g>
            <g id="Group" transform="translate(58.000000, 20.000000)" fill="#83888C">
                <rect id="Rectangle" x="1" y="1.167" width="6" height="6"></rect>
                <path d="M7.381,0.773 C5.999,1.153 4.614,0.207 3.273,0.186 C2.674,0.177 2.079,0.179 1.501,0.187 L0.123,0.209 L0.144,1.544 C0.175,3.606 0.294,5.608 0.332,7.544 L0.355,8.734 L1.501,8.712 C3.121,8.681 4.681,8.704 6.204,8.87 C6.487,8.901 6.953,8.969 7.244,8.928 C7.848,8.842 7.237,7.327 6.948,7.113 C5.136,5.762 3.155,6.013 1.553,6.454 L1.5,6.469 L2.575,7.545 C2.033,5.537 2.083,3.535 2.259,1.545 L1.5,2.304 C3.514,2.482 5.516,2.791 7.5,2.75 L6.296,1.545 C6.333,3.336 6.654,5.112 7.611,6.871 C7.719,7.069 8.154,7.906 8.664,7.367 C9.185,6.816 8.821,5.725 8.768,5.486 C8.495,4.219 8.644,2.893 8.303,1.545 L8.062,0.591 L7.499,0.741 L7.381,0.773 Z M7.885,1.92 C8.075,1.894 8.475,2.086 8.235,2.118 C8.045,2.145 7.645,1.953 7.885,1.92 Z" id="Shape"></path>
            </g>
            <g id="Group" transform="translate(81.000000, 20.000000)" fill="#83888C">
                <rect id="Rectangle" x="1" y="1.167" width="6" height="6"></rect>
                <path d="M7.381,0.773 C5.999,1.153 4.614,0.207 3.273,0.186 C2.674,0.177 2.079,0.179 1.501,0.187 L0.123,0.209 L0.144,1.544 C0.175,3.606 0.294,5.608 0.332,7.544 L0.355,8.734 L1.501,8.712 C3.121,8.681 4.681,8.704 6.204,8.87 C6.487,8.901 6.953,8.969 7.244,8.928 C7.848,8.842 7.237,7.327 6.948,7.113 C5.136,5.762 3.155,6.013 1.553,6.454 L1.5,6.469 L2.575,7.545 C2.033,5.537 2.083,3.535 2.259,1.545 L1.5,2.304 C3.514,2.482 5.516,2.791 7.5,2.75 L6.296,1.545 C6.333,3.336 6.654,5.112 7.611,6.871 C7.719,7.069 8.154,7.906 8.664,7.367 C9.185,6.816 8.821,5.725 8.768,5.486 C8.495,4.219 8.644,2.893 8.303,1.545 L8.062,0.591 L7.499,0.741 L7.381,0.773 Z M7.885,1.92 C8.075,1.894 8.475,2.086 8.235,2.118 C8.045,2.145 7.645,1.953 7.885,1.92 Z" id="Shape"></path>
            </g>
            <g id="Group" transform="translate(35.000000, 37.000000)" fill="#83888C">
                <rect id="Rectangle" x="1" y="1.167" width="6" height="6"></rect>
                <path d="M7.381,0.773 C5.999,1.153 4.614,0.207 3.273,0.186 C2.674,0.177 2.078,0.179 1.501,0.187 L0.123,0.209 L0.144,1.544 C0.176,3.606 0.295,5.608 0.333,7.544 L0.356,8.735 L1.501,8.713 C3.121,8.683 4.681,8.705 6.204,8.871 C6.487,8.902 6.954,8.97 7.244,8.929 C7.847,8.842 7.237,7.328 6.949,7.114 C5.136,5.763 3.156,6.014 1.553,6.455 L1.5,6.469 L2.576,7.545 C2.034,5.537 2.083,3.535 2.259,1.545 L1.5,2.304 C3.514,2.482 5.516,2.791 7.5,2.75 L6.296,1.545 C6.333,3.336 6.654,5.112 7.611,6.871 C7.719,7.069 8.154,7.906 8.664,7.367 C9.185,6.816 8.821,5.725 8.768,5.486 C8.495,4.219 8.644,2.893 8.303,1.545 L8.062,0.591 L7.499,0.741 L7.381,0.773 Z M7.885,1.92 C8.075,1.894 8.474,2.086 8.234,2.118 C8.045,2.145 7.645,1.953 7.885,1.92 Z" id="Shape"></path>
            </g>
            <g id="Group" transform="translate(12.000000, 37.000000)" fill="#83888C">
                <rect id="Rectangle" x="1" y="1.167" width="6" height="6"></rect>
                <path d="M7.381,0.773 C5.999,1.153 4.614,0.207 3.273,0.186 C2.674,0.177 2.078,0.179 1.501,0.187 L0.123,0.209 L0.144,1.544 C0.176,3.606 0.295,5.608 0.333,7.544 L0.356,8.735 L1.501,8.713 C3.121,8.683 4.681,8.705 6.204,8.871 C6.487,8.902 6.954,8.97 7.244,8.929 C7.847,8.842 7.237,7.328 6.949,7.114 C5.136,5.763 3.156,6.014 1.553,6.455 L1.5,6.469 L2.576,7.545 C2.034,5.537 2.083,3.535 2.259,1.545 L1.5,2.304 C3.514,2.482 5.516,2.791 7.5,2.75 L6.296,1.545 C6.333,3.336 6.654,5.112 7.611,6.871 C7.719,7.069 8.154,7.906 8.664,7.367 C9.185,6.816 8.821,5.725 8.768,5.486 C8.495,4.219 8.644,2.893 8.303,1.545 L8.062,0.591 L7.499,0.741 L7.381,0.773 Z M7.885,1.92 C8.075,1.894 8.474,2.086 8.234,2.118 C8.045,2.145 7.645,1.953 7.885,1.92 Z" id="Shape"></path>
            </g>
            <g id="Group" transform="translate(58.000000, 37.000000)" fill="#83888C">
                <rect id="Rectangle" x="1" y="1.167" width="6" height="6"></rect>
                <path d="M7.381,0.773 C5.999,1.153 4.614,0.207 3.273,0.186 C2.674,0.177 2.079,0.179 1.501,0.187 L0.123,0.209 L0.144,1.544 C0.175,3.606 0.294,5.608 0.332,7.544 L0.355,8.735 L1.501,8.713 C3.121,8.683 4.681,8.705 6.204,8.871 C6.487,8.902 6.953,8.97 7.244,8.929 C7.848,8.842 7.237,7.328 6.948,7.114 C5.136,5.763 3.155,6.014 1.553,6.455 L1.5,6.469 L2.575,7.545 C2.033,5.537 2.083,3.535 2.259,1.545 L1.5,2.304 C3.514,2.482 5.516,2.791 7.5,2.75 L6.296,1.545 C6.333,3.336 6.654,5.112 7.611,6.871 C7.719,7.069 8.154,7.906 8.664,7.367 C9.185,6.816 8.821,5.725 8.768,5.486 C8.495,4.219 8.644,2.893 8.303,1.545 L8.062,0.591 L7.499,0.741 L7.381,0.773 Z M7.885,1.92 C8.075,1.894 8.475,2.086 8.235,2.118 C8.045,2.145 7.645,1.953 7.885,1.92 Z" id="Shape"></path>
            </g>
            <g id="Group" transform="translate(81.000000, 37.000000)" fill="#83888C">
                <rect id="Rectangle" x="1" y="1.167" width="6" height="6"></rect>
                <path d="M7.381,0.773 C5.999,1.153 4.614,0.207 3.273,0.186 C2.674,0.177 2.079,0.179 1.501,0.187 L0.123,0.209 L0.144,1.544 C0.175,3.606 0.294,5.608 0.332,7.544 L0.355,8.735 L1.501,8.713 C3.121,8.683 4.681,8.705 6.204,8.871 C6.487,8.902 6.953,8.97 7.244,8.929 C7.848,8.842 7.237,7.328 6.948,7.114 C5.136,5.763 3.155,6.014 1.553,6.455 L1.5,6.469 L2.575,7.545 C2.033,5.537 2.083,3.535 2.259,1.545 L1.5,2.304 C3.514,2.482 5.516,2.791 7.5,2.75 L6.296,1.545 C6.333,3.336 6.654,5.112 7.611,6.871 C7.719,7.069 8.154,7.906 8.664,7.367 C9.185,6.816 8.821,5.725 8.768,5.486 C8.495,4.219 8.644,2.893 8.303,1.545 L8.062,0.591 L7.499,0.741 L7.381,0.773 Z M7.885,1.92 C8.075,1.894 8.475,2.086 8.235,2.118 C8.045,2.145 7.645,1.953 7.885,1.92 Z" id="Shape"></path>
            </g>
            <g id="Group" transform="translate(35.000000, 55.000000)" fill="#83888C">
                <rect id="Rectangle" x="1" y="1.167" width="6" height="6"></rect>
                <path d="M7.381,0.774 C5.999,1.154 4.614,0.208 3.273,0.187 C2.674,0.177 2.078,0.179 1.501,0.188 L0.123,0.209 L0.144,1.545 C0.176,3.607 0.295,5.608 0.333,7.545 L0.356,8.735 L1.501,8.714 C3.121,8.683 4.681,8.705 6.204,8.871 C6.487,8.902 6.954,8.971 7.244,8.93 C7.847,8.843 7.237,7.328 6.949,7.115 C5.136,5.764 3.156,6.014 1.553,6.456 L1.5,6.47 L2.576,7.545 C2.034,5.537 2.083,3.535 2.259,1.545 L1.5,2.304 C3.514,2.483 5.516,2.79 7.5,2.749 L6.296,1.545 C6.333,3.336 6.654,5.112 7.611,6.871 C7.719,7.068 8.154,7.905 8.664,7.367 C9.185,6.815 8.821,5.724 8.768,5.486 C8.495,4.218 8.644,2.892 8.303,1.545 L8.062,0.592 L7.5,0.742 L7.381,0.774 Z M7.885,1.92 C8.075,1.895 8.474,2.086 8.234,2.119 C8.045,2.145 7.645,1.954 7.885,1.92 Z" id="Shape"></path>
            </g>
            <g id="Group" transform="translate(12.000000, 55.000000)" fill="#83888C">
                <rect id="Rectangle" x="1" y="1.167" width="6" height="6"></rect>
                <path d="M7.381,0.774 C5.999,1.154 4.614,0.208 3.273,0.187 C2.674,0.177 2.078,0.179 1.501,0.188 L0.123,0.209 L0.144,1.545 C0.176,3.607 0.295,5.608 0.333,7.545 L0.356,8.735 L1.501,8.714 C3.121,8.683 4.681,8.705 6.204,8.871 C6.487,8.902 6.954,8.971 7.244,8.93 C7.847,8.843 7.237,7.328 6.949,7.115 C5.136,5.764 3.156,6.014 1.553,6.456 L1.5,6.47 L2.576,7.545 C2.034,5.537 2.083,3.535 2.259,1.545 L1.5,2.304 C3.514,2.483 5.516,2.79 7.5,2.749 L6.296,1.545 C6.333,3.336 6.654,5.112 7.611,6.871 C7.719,7.068 8.154,7.905 8.664,7.367 C9.185,6.815 8.821,5.724 8.768,5.486 C8.495,4.218 8.644,2.892 8.303,1.545 L8.062,0.592 L7.5,0.742 L7.381,0.774 Z M7.885,1.92 C8.075,1.895 8.474,2.086 8.234,2.119 C8.045,2.145 7.645,1.954 7.885,1.92 Z" id="Shape"></path>
            </g>
            <g id="Group" transform="translate(58.000000, 55.000000)" fill="#83888C">
                <rect id="Rectangle" x="1" y="1.167" width="6" height="6"></rect>
                <path d="M7.381,0.774 C5.999,1.154 4.614,0.208 3.273,0.187 C2.674,0.177 2.079,0.179 1.501,0.188 L0.123,0.209 L0.144,1.545 C0.175,3.607 0.294,5.608 0.332,7.545 L0.355,8.735 L1.501,8.714 C3.121,8.683 4.681,8.705 6.204,8.871 C6.487,8.902 6.953,8.971 7.244,8.93 C7.848,8.843 7.237,7.328 6.948,7.115 C5.136,5.764 3.155,6.014 1.553,6.456 L1.5,6.47 L2.575,7.545 C2.033,5.537 2.083,3.535 2.259,1.545 L1.5,2.304 C3.514,2.483 5.516,2.79 7.5,2.749 L6.296,1.545 C6.333,3.336 6.654,5.112 7.611,6.871 C7.719,7.068 8.154,7.905 8.664,7.367 C9.185,6.815 8.821,5.724 8.768,5.486 C8.495,4.218 8.644,2.892 8.303,1.545 L8.062,0.592 L7.5,0.742 L7.381,0.774 Z M7.885,1.92 C8.075,1.895 8.475,2.086 8.235,2.119 C8.045,2.145 7.645,1.954 7.885,1.92 Z" id="Shape"></path>
            </g>
            <g id="Group" transform="translate(35.000000, 72.000000)" fill="#83888C">
                <rect id="Rectangle" x="1" y="1.167" width="6" height="6"></rect>
                <path d="M7.381,0.774 C5.999,1.154 4.614,0.208 3.273,0.187 C2.674,0.177 2.078,0.179 1.501,0.188 L0.123,0.209 L0.144,1.545 C0.176,3.607 0.295,5.608 0.333,7.545 L0.356,8.735 L1.501,8.714 C3.121,8.683 4.681,8.705 6.204,8.871 C6.487,8.902 6.954,8.971 7.244,8.93 C7.847,8.843 7.237,7.328 6.949,7.115 C5.136,5.764 3.156,6.014 1.553,6.456 L1.5,6.47 L2.576,7.545 C2.034,5.537 2.083,3.535 2.259,1.545 L1.5,2.304 C3.514,2.483 5.516,2.79 7.5,2.749 L6.296,1.545 C6.333,3.336 6.654,5.112 7.611,6.871 C7.719,7.068 8.154,7.905 8.664,7.367 C9.185,6.815 8.821,5.724 8.768,5.486 C8.495,4.218 8.644,2.892 8.303,1.545 L8.062,0.592 L7.5,0.742 L7.381,0.774 Z M7.885,1.92 C8.075,1.895 8.474,2.086 8.234,2.119 C8.045,2.145 7.645,1.954 7.885,1.92 Z" id="Shape"></path>
            </g>
            <g id="Group" transform="translate(12.000000, 72.000000)" fill="#83888C">
                <rect id="Rectangle" x="1" y="1.167" width="6" height="6"></rect>
                <path d="M7.381,0.774 C5.999,1.154 4.614,0.208 3.273,0.187 C2.674,0.177 2.078,0.179 1.501,0.188 L0.123,0.209 L0.144,1.545 C0.176,3.607 0.295,5.608 0.333,7.545 L0.356,8.735 L1.501,8.714 C3.121,8.683 4.681,8.705 6.204,8.871 C6.487,8.902 6.954,8.971 7.244,8.93 C7.847,8.843 7.237,7.328 6.949,7.115 C5.136,5.764 3.156,6.014 1.553,6.456 L1.5,6.47 L2.576,7.545 C2.034,5.537 2.083,3.535 2.259,1.545 L1.5,2.304 C3.514,2.483 5.516,2.79 7.5,2.749 L6.296,1.545 C6.333,3.336 6.654,5.112 7.611,6.871 C7.719,7.068 8.154,7.905 8.664,7.367 C9.185,6.815 8.821,5.724 8.768,5.486 C8.495,4.218 8.644,2.892 8.303,1.545 L8.062,0.592 L7.5,0.742 L7.381,0.774 Z M7.885,1.92 C8.075,1.895 8.474,2.086 8.234,2.119 C8.045,2.145 7.645,1.954 7.885,1.92 Z" id="Shape"></path>
            </g>
            <g id="Group" transform="translate(58.000000, 72.000000)" fill="#83888C">
                <rect id="Rectangle" x="1" y="1.167" width="6" height="6"></rect>
                <path d="M7.381,0.774 C5.999,1.154 4.614,0.208 3.273,0.187 C2.674,0.177 2.079,0.179 1.501,0.188 L0.123,0.209 L0.144,1.545 C0.175,3.607 0.294,5.608 0.332,7.545 L0.355,8.735 L1.501,8.714 C3.121,8.683 4.681,8.705 6.204,8.871 C6.487,8.902 6.953,8.971 7.244,8.93 C7.848,8.843 7.237,7.328 6.948,7.115 C5.136,5.764 3.155,6.014 1.553,6.456 L1.5,6.47 L2.575,7.545 C2.033,5.537 2.083,3.535 2.259,1.545 L1.5,2.304 C3.514,2.483 5.516,2.79 7.5,2.749 L6.296,1.545 C6.333,3.336 6.654,5.112 7.611,6.871 C7.719,7.068 8.154,7.905 8.664,7.367 C9.185,6.815 8.821,5.724 8.768,5.486 C8.495,4.218 8.644,2.892 8.303,1.545 L8.062,0.592 L7.5,0.742 L7.381,0.774 Z M7.885,1.92 C8.075,1.895 8.475,2.086 8.235,2.119 C8.045,2.145 7.645,1.954 7.885,1.92 Z" id="Shape"></path>
            </g>
            <g id="Group" transform="translate(81.000000, 55.000000)" fill="#83888C">
                <rect id="Rectangle" x="1" y="1.167" width="6" height="6"></rect>
                <path d="M7.381,0.774 C5.999,1.154 4.614,0.208 3.273,0.187 C2.674,0.177 2.079,0.179 1.501,0.188 L0.123,0.209 L0.144,1.545 C0.175,3.607 0.294,5.608 0.332,7.545 L0.355,8.735 L1.501,8.714 C3.121,8.683 4.681,8.705 6.204,8.871 C6.487,8.902 6.953,8.971 7.244,8.93 C7.848,8.843 7.237,7.328 6.948,7.115 C5.136,5.764 3.155,6.014 1.553,6.456 L1.5,6.47 L2.575,7.545 C2.033,5.537 2.083,3.535 2.259,1.545 L1.5,2.304 C3.514,2.483 5.516,2.79 7.5,2.749 L6.296,1.545 C6.333,3.336 6.654,5.112 7.611,6.871 C7.719,7.068 8.154,7.905 8.664,7.367 C9.185,6.815 8.821,5.724 8.768,5.486 C8.495,4.218 8.644,2.892 8.303,1.545 L8.062,0.592 L7.5,0.742 L7.381,0.774 Z M7.885,1.92 C8.075,1.895 8.475,2.086 8.235,2.119 C8.045,2.145 7.645,1.954 7.885,1.92 Z" id="Shape"></path>
            </g>
        </g>
    </g>
</svg>